grf
version=1
nRows=16
nColumns=28
inDegrees=no
endheader
time	ground_force_1_vx	ground_force_1_vy	ground_force_1_vz	ground_force_1_px	ground_force_1_py	ground_force_1_pz	ground_moment_1_mx	ground_moment_1_my	ground_moment_1_mz	ground_force_2_vx	ground_force_2_vy	ground_force_2_vz	ground_force_2_px	ground_force_2_py	ground_force_2_pz	ground_moment_2_mx	ground_moment_2_my	ground_moment_2_mz	ground_force_3_vx	ground_force_3_vy	ground_force_3_vz	ground_force_3_px	ground_force_3_py	ground_force_3_pz	ground_moment_3_mx	ground_moment_3_my	ground_moment_3_mz
      0.45000000	      0.20188205	      0.31911510	      1.02637143	    381.29540234	  -1575.18174495	      2.56829553	      0.03883920	      0.14044306	     76.95523383	     15.90081897	     18.60065936	   -647.50675881	    432.62837296	  -1705.18206878	      0.18305002	      0.25366920	      3.28068796	  -3931.16118819	      1.54299800	     -0.93332691	      4.55340094	    553.31268696	   -280.07712458	      0.40179631	     -0.14252758	      1.04699722	    509.82498069
      0.46000000	      0.42281881	      0.33562704	      1.15275061	    354.83912638	  -1595.51814487	      2.61876185	     -0.00941463	     -0.03404344	    -18.65396960	     16.34219064	     27.62071816	   -692.41603747	    433.22067616	  -1703.64781755	      0.18436862	      0.29080495	      3.76096234	  -4506.66120553	      1.54987077	     -0.73027639	      4.37104529	    479.22004290	   -300.82747265	      0.42369660	     -0.10184583	      0.74815205	    364.30526742
      0.47000000	      0.33086184	      0.08432771	      1.14035189	    447.29328480	  -1490.40888134	      2.38027628	     -0.00155163	     -0.00561072	     -3.07437014	     17.91284028	     37.18937332	   -740.75560920	    433.88057201	  -1701.83280650	      0.18592589	      0.32512167	      4.20477837	  -5038.47416134	      1.66453050	     -0.87854913	      4.79705307	    483.19643891	   -301.10858308	      0.42538554	     -0.13467883	      0.98934084	    481.74977255
      0.48000000	      0.38600359	      0.06272065	      1.76335793	    408.39430628	  -1417.84847894	      2.26748604	      0.00715665	      0.02587852	     14.18003780	     20.16616719	     49.79205732	   -792.55244254	    434.12533809	  -1700.05691991	      0.18742372	      0.35463112	      4.58642232	  -5495.78795635	      1.53335792	     -0.62318042	      4.69586413	    471.45309262	   -305.10163351	      0.43030284	     -0.07145103	      0.52487406	    255.58225317
      0.49000000	      0.47146352	      0.21027421	      0.91998120	    432.63732080	  -1628.04347815	      2.63885583	     -0.03326538	     -0.12028805	    -65.91137264	     22.97335287	     63.47405703	   -846.22049829	    434.27759104	  -1698.67721127	      0.18858496	      0.38207995	      4.94141631	  -5921.16781914	      1.65707464	     -0.64164160	      4.87907828	    484.23763301	   -294.96328824	      0.41305640	     -0.13098724	      0.96222273	    468.54487551
      0.50000000	      0.28305543	      0.15569212	      1.02616080	    396.65787755	  -1599.74554805	      2.60537098	      0.01097604	      0.03968950	     21.74770702	     27.22351000	     75.34655894	   -904.06599102	    434.36451236	  -1697.24473486	      0.18978602	      0.39454606	      5.10263969	  -6114.35751704	      1.81681823	     -0.49548634	      4.86777110	    464.64783926	   -307.62285861	      0.43357805	     -0.10090883	      0.74126891	    360.95359152
      0.51000000	      0.35077516	     -0.00056884	      1.08854533	    484.24695238	  -1560.56392681	      2.48965855	      0.00613871	      0.02219766	     12.16312318	     32.22689010	     89.84340985	   -960.91712957	    434.39858759	  -1695.46730172	      0.19127155	      0.39074763	      5.05351489	  -6055.49257227	      1.53477018	     -0.89620695	      4.69790944	    499.75002205	   -308.27121967	      0.44472277	     -0.11848311	      0.87036827	    423.81725327
      0.52000000	      0.62539499	      0.11655035	      1.25562268	    452.15538563	  -1505.03814047	      2.40452074	     -0.04176803	     -0.15103373	    -82.75834928	     38.37663047	    106.79448651	  -1013.10096577	    434.37257351	  -1693.71325639	      0.19273368	      0.37417610	      4.83919633	  -5798.68034384	      1.47951843	     -0.72534953	      4.42762872	    454.09934678	   -295.50258032	      0.40573840	     -0.07845804	      0.57634706	    280.64652299
      0.53000000	      0.52178940	      0.29146465	      1.33963108	    444.26898854	  -1529.58267974	      2.45329470	     -0.02555110	     -0.09239311	    -50.62644847	     45.55409111	    124.43110860	  -1062.52209847	    434.40998121	  -1691.93955993	      0.19421630	      0.33585951	      4.34365020	  -5204.88058684	      1.66668013	     -0.65686955	      5.14480811	    481.45112658	   -310.95293588	      0.44511438	     -0.09620412	      0.70670844	    344.12471161
      0.54000000	      0.47990757	      0.14677071	      1.36189182	    511.05911745	  -1488.84671424	      2.34524280	     -0.01328468	     -0.04803758	    -26.32200815	     50.15900363	    143.53574213	  -1101.99275329	    434.42774520	  -1690.10927956	      0.19574488	      0.29758099	      3.84859651	  -4611.67089992	      1.98736054	     -0.91219804	      4.73722781	    485.24639191	   -289.05130699	      0.40119732	     -0.11534359	      0.84730558	    412.58710378
      0.55000000	      0.60661665	      0.15543903	      1.57752741	    485.18590902	  -1531.52281304	      2.43618472	     -0.04989743	     -0.18042975	    -98.86578683	     52.80998023	    162.96971431	  -1132.77129269	    434.64019833	  -1688.08009638	      0.19745201	      0.26087135	      3.37383301	  -4042.77442391	      1.65994256	     -0.69502357	      4.63379014	    496.76561513	   -303.96362304	      0.43504219	     -0.11532981	      0.84720434	    412.53780312
      0.56000000	      0.38319328	     -0.01520257	      1.20340991	    529.13319372	  -1581.02207211	      2.50434058	      0.00352295	      0.01273905	      6.98031351	     52.37528138	    181.83711411	  -1151.97400243	    434.99546369	  -1685.70921914	      0.19945352	      0.21860607	      2.82721868	  -3387.78099644	      1.82614903	     -0.78349523	      4.85320436	    473.15075352	   -273.47071927	      0.36581892	     -0.14821425	      1.08877104	    530.16633192
      0.57000000	      0.48562773	     -0.04255481	      1.20980141	    516.68682160	  -1675.81847776	      2.68362539	     -0.04031059	     -0.14576362	    -79.87061449	     49.59745355	    199.29812567	  -1160.20085737	    435.51073656	  -1683.32780513	      0.20147414	      0.19036845	      2.46202339	  -2950.17718643	      1.67151046	     -0.88573340	      4.75260384	    527.85543969	   -299.42842590	      0.43442006	     -0.14713955	      1.08087640	    526.32211189
      0.58000000	      0.52575015	      0.00705578	      0.85530812	    476.98064587	  -1864.46408879	      3.04794268	     -0.10802588	     -0.39062296	   -214.04034903	     45.90778731	    217.66909204	  -1154.48904595	    436.08633535	  -1681.44012842	      0.20308661	      0.15261791	      1.97379796	  -2365.14963439	      1.60924353	     -0.75193579	      5.30554934	    508.47926341	   -313.15633764	      0.45719541	     -0.10254839	      0.75331299	    366.81833656
      0.59000000	     -1.23227928	      2.77986994	    -27.45811049	    590.84885749	  -1046.09986711	      1.49696143	      0.12168068	      0.43999889	    241.09570226	     40.04425745	    236.89922270	  -1126.79885332	    436.84430935	  -1679.53991349	      0.20472131	      0.12963881	      1.67661067	  -2009.03800405	      1.75705482	     -0.68212873	      5.49577151	    470.94431183	   -303.88559141	      0.42766330	     -0.11842744	      0.86995935	    423.61813207
      0.60000000	      0.18194253	     63.40764390	   -167.16188250	    568.60174945	  -1082.27957367	      1.57421737	      0.22963741	      0.83037183	    454.99905279	     30.27193069	    251.40959675	  -1083.65053728	    437.79129050	  -1677.85706358	      0.20618682	      0.13978469	      1.80782667	  -2166.27064237	      1.89855907	     -0.97082407	      4.62645038	    482.58849734	   -300.55973279	      0.42408845	     -0.16088986	      1.18188515	    575.50733002
